<svg xmlns="http://www.w3.org/2000/svg" data-name="Layer 1" viewBox="0 0 700 550"><path fill="#8b9d36" d="M546.20375,430.45605c-.98535-1.6416-24.18652-40.30664-27.93945-50.31445l.93554-.35156c3.72168,9.92285,27.62012,49.75,27.86133,50.15039Z"/><path fill="#8b9d36" d="M526.832 358.906a42.96092 42.96092 0 00-2.31006 7.74274 72.38517 72.38517 0 00-1.18066 7.85022 70.94385 70.94385 0 00-.3252 7.93152 42.37966 42.37966 0 00.81543 8.04 42.41774 42.41774 0 002.31543-7.74231 71.05723 71.05723 0 001.1753-7.85071 72.386 72.386 0 00.31982-7.932A42.92136 42.92136 0 00526.832 358.906zM535.65227 370.966a40.97711 40.97711 0 00-2.99755 7.3003 68.81891 68.81891 0 00-1.88331 7.51428 67.77055 67.77055 0 00-1.03955 7.67633 40.52933 40.52933 0 00.08594 7.89239 40.49076 40.49076 0 003.00293-7.29925 67.76843 67.76843 0 001.87793-7.51538 68.93077 68.93077 0 001.03418-7.67731A41.01564 41.01564 0 00535.65227 370.966zM540.51214 385.006a34.76871 34.76871 0 00-2.55176 6.78558 57.75717 57.75717 0 00-1.42773 6.946 56.79106 56.79106 0 00-.57764 7.06732 34.32983 34.32983 0 00.55664 7.22925 34.332 34.332 0 002.55713-6.78485 56.69905 56.69905 0 001.42236-6.94672 57.76044 57.76044 0 00.57227-7.06812A34.73565 34.73565 0 00540.51214 385.006zM546.63225 399.02a26.61777 26.61777 0 00-2.5874 5.7746 43.37591 43.37591 0 00-1.46875 5.96771 42.57458 42.57458 0 00-.62256 6.11383 26.30915 26.30915 0 00.50635 6.30878 26.28807 26.28807 0 002.59277-5.77369 42.64276 42.64276 0 001.46387-5.96862 43.44554 43.44554 0 00.61719-6.11475A26.61706 26.61706 0 00546.63225 399.02zM552.03216 407.77932a23.96355 23.96355 0 00-2.73145 5.07031 41.31968 41.31968 0 00-1.71728 5.25976 47.214 47.214 0 00-1.03711 5.39392c-.11231.91553-.21533 1.82593-.28369 2.75391a20.49426 20.49426 0 01-.30176 2.81983 5.53622 5.53622 0 00.66406-.41919l.53906-.54017a9.96584 9.96584 0 00.94287-1.17932 18.8884 18.8884 0 001.44971-2.52307 28.09491 28.09491 0 001.90234-5.32019 31.49086 31.49086 0 00.89551-5.53955A20.85388 20.85388 0 00552.03216 407.77932zM521.58733 386.15767a34.449 34.449 0 00-6.084-5.27569 56.37912 56.37912 0 00-6.72461-4.01 55.38957 55.38957 0 00-7.21-3.05194 34.055 34.055 0 00-7.85645-1.77411 34.04552 34.04552 0 006.08057 5.28174 55.39464 55.39464 0 006.728 4.0039 56.35549 56.35549 0 007.21289 3.0459A34.44583 34.44583 0 00521.58733 386.15767zM527.56341 397.3199a42.4367 42.4367 0 00-7.50391-4.91229 70.65507 70.65507 0 00-8.00293-3.58417 69.39218 69.39218 0 00-8.38037-2.5791 41.95341 41.95341 0 00-8.88379-1.23834 41.9616 41.9616 0 007.501 4.91864 69.40235 69.40235 0 008.00537 3.57782 70.63882 70.63882 0 008.38281 2.57275A42.43635 42.43635 0 00527.56341 397.3199zM534.59808 409.72713a36.18976 36.18976 0 00-6.76417-4.74268 59.47306 59.47306 0 00-7.28027-3.421 58.41711 58.41711 0 00-7.67041-2.42077 35.77048 35.77048 0 00-8.19092-1.08649 35.78244 35.78244 0 006.76172 4.749 58.42473 58.42473 0 007.28272 3.41474 59.47866 59.47866 0 007.67285 2.41449A36.18757 36.18757 0 00534.59808 409.72713zM540.15765 419.277a27.13015 27.13015 0 00-5.94092-3.91315 43.3282 43.3282 0 00-6.36475-2.55914 42.552 42.552 0 00-6.686-1.53455 26.84218 26.84218 0 00-7.11377-.16766 26.84016 26.84016 0 005.939 3.91955 42.54838 42.54838 0 006.36719 2.55274 43.30675 43.30675 0 006.6875 1.528A27.14439 27.14439 0 00540.15765 419.277z"/><path fill="#8b9d36" d="M544.54632 427.846a35.6842 35.6842 0 00-6.53028-4.9618 58.56477 58.56477 0 00-7.09375-3.65979 57.5446 57.5446 0 00-7.5205-2.67456 35.28284 35.28284 0 00-8.08936-1.3601 35.26982 35.26982 0 006.52734 4.968 57.52327 57.52327 0 007.09668 3.65369 58.55413 58.55413 0 007.52295 2.66821A35.6822 35.6822 0 00544.54632 427.846zM519.64544 381.406a25.1155 25.1155 0 00-.19483-8.01983 37.78919 37.78919 0 00-2.04345-7.2959 37.16923 37.16923 0 00-3.44385-6.74756 24.86487 24.86487 0 00-5.311-6.01672 24.8503 24.8503 0 00.18555 8.02325 37.20253 37.20253 0 002.05225 7.29248 37.79263 37.79263 0 003.45312 6.74408A25.1198 25.1198 0 00519.64544 381.406z"/><path fill="#50661a" d="M549.87563,432.08984c-.01075-.666-1.22559-66.873-13.9629-87.041l.84571-.5332c12.88672,20.40429,14.07324,84.82617,14.11719,87.55859Z"/><path fill="#50661a" d="M540.476 353.7177a45.82731 45.82731 0 01-.2998-9.01806 81.07253 81.07253 0 01.97461-8.748c.4668-2.88482 1.10205-5.741 1.84912-8.57336.74609-2.85108 1.68848-5.59418 2.69531-8.516a12.4946 12.4946 0 01.645 2.24206 19.97845 19.97845 0 01.35254 2.27826 38.609 38.609 0 01.20313 4.52258 58.06855 58.06855 0 01-.814 8.86359 64.41682 64.41682 0 01-2.05078 8.63025A40.57768 40.57768 0 01540.476 353.7177zM524.63567 312.92229a32.40161 32.40161 0 015.64112 7.24805 50.93808 50.93808 0 013.78076 7.94428 50.05561 50.05561 0 012.373 8.47125 32.0521 32.0521 0 01.49512 9.17407 32.05145 32.05145 0 01-5.6499-7.24475 50.00851 50.00851 0 01-3.772-7.94763 50.93782 50.93782 0 01-2.36426-8.47455A32.38532 32.38532 0 01524.63567 312.92229zM514.01556 329.34112a74.64233 74.64233 0 017.42871 6.845c2.29589 2.38 4.48681 4.81323 6.63037 7.25964l6.36865 7.30878c1.06836 1.19684 2.14795 2.37616 3.28857 3.49322a15.01633 15.01633 0 003.88623 2.93573 6.74539 6.74539 0 01-2.65966-.06744 12.45175 12.45175 0 01-2.5625-.806 24.747 24.747 0 01-4.564-2.61688 44.79374 44.79374 0 01-7.51806-6.95514 59.34862 59.34862 0 01-5.97413-8.16138A42.47557 42.47557 0 01514.01556 329.34112zM514.01556 345.75994a61.48143 61.48143 0 019.23486 5.67981 104.62126 104.62126 0 018.28564 6.73413 102.85475 102.85475 0 017.56739 7.532 60.78891 60.78891 0 016.60888 8.59638 60.766 60.766 0 01-9.23974-5.67481 102.77269 102.77269 0 01-8.28125-6.73913 104.61446 104.61446 0 01-7.5625-7.537A61.47264 61.47264 0 01514.01556 345.75994zM515.09563 358.64226a60.7939 60.7939 0 019.33008 5.39563 103.3948 103.3948 0 018.40918 6.47431 101.6137 101.6137 0 017.71143 7.29059 60.11117 60.11117 0 016.78076 8.37945 60.08177 60.08177 0 01-9.335-5.39044 101.55017 101.55017 0 01-8.4043-6.47943 103.38827 103.38827 0 01-7.707-7.29572A60.76419 60.76419 0 01515.09563 358.64226zM515.81536 372.41228a56.52071 56.52071 0 019.3457 4.53376 95.71353 95.71353 0 018.49707 5.67047 94.12288 94.12288 0 017.8545 6.53088 55.85145 55.85145 0 016.99755 7.67853 55.90269 55.90269 0 01-9.3496-4.52832 94.117 94.117 0 01-8.49317-5.676 95.779 95.779 0 01-7.8501-6.53631A56.52015 56.52015 0 01515.81536 372.41228zM515.09563 382.40227a62.88315 62.88315 0 019.77832 4.96485 107.11128 107.11128 0 018.92041 6.09479 105.22848 105.22848 0 018.27149 6.95 62.144 62.144 0 017.40478 8.09064 62.14942 62.14942 0 01-9.78222-4.95942 105.22971 105.22971 0 01-8.91651-6.10022 107.09614 107.09614 0 01-8.26709-6.95538A62.87836 62.87836 0 01515.09563 382.40227zM512.57561 391.76226a81.97366 81.97366 0 0110.2212 5.67273c3.24511 2.07739 6.38476 4.2735 9.4458 6.56561 3.06982 2.27875 6.05468 4.65448 8.98681 7.10932 2.96241 2.43377 5.76074 4.96862 8.82569 7.479a24.713 24.713 0 01-5.72315-1.67017 55.96635 55.96635 0 01-5.31445-2.55853 87.2257 87.2257 0 01-9.7666-6.35547 100.70452 100.70452 0 01-8.87256-7.4873A63.78567 63.78567 0 01512.57561 391.76226zM509.51556 401.48229a84.30556 84.30556 0 0111.09912 5.27448c3.54443 1.97454 6.98437 4.09466 10.34521 6.32635q5.042 3.34653 9.84082 7.03778 2.39868 1.85083 4.75147 3.76819a42.34093 42.34093 0 004.82324 3.69324 9.31708 9.31708 0 01-3.11817-.53552c-1.00488-.29761-1.98046-.65967-2.94531-1.03626-1.92431-.76392-3.78369-1.63769-5.60742-2.5636a106.418 106.418 0 01-10.51318-6.202 120.18257 120.18257 0 01-9.78565-7.25214A74.38042 74.38042 0 01509.51556 401.48229zM543.57854 365.15313a49.75115 49.75115 0 011.43457-9.62586 83.5974 83.5974 0 012.76661-9.13855 82.282 82.282 0 013.77539-8.76977 49.21427 49.21427 0 015.12011-8.27783 49.21934 49.21934 0 01-1.42773 9.62817 82.28244 82.28244 0 01-2.77344 9.13623 83.71015 83.71015 0 01-3.78174 8.76746A49.74989 49.74989 0 01543.57854 365.15313zM545.71233 376.39294a50.83564 50.83564 0 012.7627-9.44587 85.60493 85.60493 0 014.01758-8.78448 84.18059 84.18059 0 014.96777-8.284 50.29455 50.29455 0 016.23486-7.61633 50.29515 50.29515 0 01-2.75634 9.449 84.28448 84.28448 0 01-4.02393 8.78131 85.711 85.711 0 01-4.97363 8.28082A50.90118 50.90118 0 01545.71233 376.39294zM547.32708 387.26226a55.6841 55.6841 0 014.04394-9.483 94.36449 94.36449 0 015.21924-8.68866 92.70452 92.70452 0 016.10938-8.0874 55.05972 55.05972 0 017.2959-7.28553 55.05525 55.05525 0 01-4.03858 9.48682 92.59363 92.59363 0 01-5.2251 8.68481 94.257 94.257 0 01-6.11474 8.08368A55.68706 55.68706 0 01547.32708 387.26226zM548.51018 399.254a71.803 71.803 0 015.78956-10.1778q3.22777-4.817 6.88818-9.27984 3.6482-4.4728 7.71924-8.60028a70.68881 70.68881 0 018.82812-7.69385 70.68206 70.68206 0 01-5.78418 10.18207q-3.22777 4.81677-6.89306 9.27557-3.657 4.46631-7.72461 8.596A71.71507 71.71507 0 01548.51018 399.254zM549.47063 411.689a72.5126 72.5126 0 016.856-9.5669q3.731-4.47876 7.856-8.56006 4.11329-4.09267 8.61181-7.79809a71.41756 71.41756 0 019.6211-6.78162 71.41873 71.41873 0 01-6.85108 9.57166q-3.731 4.4783-7.86035 8.55529-4.12134 4.08528-8.6167 7.79328A72.48476 72.48476 0 01549.47063 411.689zM550.05511 419.66228a63.19418 63.19418 0 017.44873-8.08764 107.66539 107.66539 0 018.3042-6.95594 105.76151 105.76151 0 018.95166-6.09948 62.4688 62.4688 0 019.81591-4.957 62.48672 62.48672 0 01-7.44482 8.093 105.84638 105.84638 0 01-8.30811 6.95056 107.742 107.742 0 01-8.95605 6.094A63.206 63.206 0 01550.05511 419.66228zM550.37542 426.32232a66.89583 66.89583 0 018.70215-7.23548q4.56445-3.2448 9.40674-6.0039 4.83471-2.77268 9.93994-5.072a66.11222 66.11222 0 0110.65136-3.82874 66.11975 66.11975 0 01-8.69921 7.24127q-4.56445 3.24445-9.40967 5.998-4.83986 2.7638-9.94336 5.06616A66.90642 66.90642 0 01550.37542 426.32232zM550.12688 430.64226A72.2483 72.2483 0 01560.308 424.778c3.49316-1.6864 7.05468-3.189 10.67431-4.53406q5.42871-2.01946 11.04737-3.52734a71.19406 71.19406 0 0111.54589-2.18433 71.19479 71.19479 0 01-10.17871 5.8706q-5.24048 2.52906-10.67675 4.52771c-3.62159 1.33985-7.30176 2.52234-11.04981 3.521A72.23646 72.23646 0 01550.12688 430.64226z"/><path fill="#5e7c24" d="M551.92641,430.45605l-.85743-.51562c.24122-.40039,24.13965-40.22754,27.86133-50.15039l.93555.35156C576.11293,390.14941,552.91176,428.81445,551.92641,430.45605Z"/><path fill="#5e7c24" d="M571.29838 358.906a42.96011 42.96011 0 012.31006 7.74274 72.38275 72.38275 0 011.18067 7.85022 70.94385 70.94385 0 01.32519 7.93152 42.37966 42.37966 0 01-.81543 8.04 42.41853 42.41853 0 01-2.31543-7.74231 71.05957 71.05957 0 01-1.17529-7.85071 72.38105 72.38105 0 01-.31982-7.932A42.92217 42.92217 0 01571.29838 358.906zM562.47807 370.966a40.97716 40.97716 0 012.99756 7.3003 68.81886 68.81886 0 011.8833 7.51428 67.76828 67.76828 0 011.03955 7.67633 40.52776 40.52776 0 01-.08594 7.89239 40.49221 40.49221 0 01-3.00293-7.29925 67.76838 67.76838 0 01-1.87792-7.51538 68.93077 68.93077 0 01-1.03418-7.67731A41.01483 41.01483 0 01562.47807 370.966zM557.61821 385.006a34.76935 34.76935 0 012.55176 6.78558 57.76106 57.76106 0 011.42773 6.946 56.79106 56.79106 0 01.57764 7.06732 34.32983 34.32983 0 01-.55664 7.22925 34.33138 34.33138 0 01-2.55713-6.78485 56.69721 56.69721 0 01-1.42237-6.94672 57.76241 57.76241 0 01-.57226-7.06812A34.735 34.735 0 01557.61821 385.006zM551.49809 399.02a26.61729 26.61729 0 012.5874 5.7746 43.37591 43.37591 0 011.46875 5.96771 42.57173 42.57173 0 01.62256 6.11383 26.30813 26.30813 0 01-.50635 6.30878 26.289 26.289 0 01-2.59277-5.77369 42.64416 42.64416 0 01-1.46387-5.96862 43.447 43.447 0 01-.61718-6.11475A26.617 26.617 0 01551.49809 399.02zM546.09819 407.77932a23.9635 23.9635 0 012.73144 5.07031 41.31973 41.31973 0 011.71729 5.25976 47.214 47.214 0 011.03711 5.39392c.1123.91553.21533 1.82593.28369 2.75391a20.49426 20.49426 0 00.30176 2.81983 5.53622 5.53622 0 01-.66406-.41919l-.53907-.54017a9.96787 9.96787 0 01-.94287-1.17932 18.88832 18.88832 0 01-1.4497-2.52307 28.09564 28.09564 0 01-1.90235-5.32019 31.49086 31.49086 0 01-.89551-5.53955A20.85427 20.85427 0 01546.09819 407.77932zM576.543 386.15767a34.44909 34.44909 0 016.084-5.27569 56.37833 56.37833 0 016.72461-4.01 55.38957 55.38957 0 017.21-3.05194A34.055 34.055 0 01604.418 372.046a34.04582 34.04582 0 01-6.08056 5.28174 55.39541 55.39541 0 01-6.728 4.0039 56.35549 56.35549 0 01-7.21289 3.0459A34.4458 34.4458 0 01576.543 386.15767zM570.56694 397.3199a42.4367 42.4367 0 017.50391-4.91229 70.65428 70.65428 0 018.00293-3.58417 69.39163 69.39163 0 018.38037-2.5791 41.95341 41.95341 0 018.88379-1.23834 41.962 41.962 0 01-7.501 4.91864 69.40235 69.40235 0 01-8.00537 3.57782 70.63939 70.63939 0 01-8.38281 2.57275A42.43644 42.43644 0 01570.56694 397.3199zM563.53227 409.72713a36.18969 36.18969 0 016.76416-4.74268 59.47375 59.47375 0 017.28027-3.421 58.41806 58.41806 0 017.67041-2.42077 35.77063 35.77063 0 018.19092-1.08649 35.78244 35.78244 0 01-6.76172 4.749 58.4246 58.4246 0 01-7.28271 3.41474 59.47866 59.47866 0 01-7.67285 2.41449A36.18765 36.18765 0 01563.53227 409.72713zM557.9727 419.277a27.12992 27.12992 0 015.94092-3.91315 43.32853 43.32853 0 016.36474-2.55914 42.55187 42.55187 0 016.686-1.53455 26.84217 26.84217 0 017.11377-.16766 26.84044 26.84044 0 01-5.939 3.91955 42.54784 42.54784 0 01-6.36718 2.55274 43.30675 43.30675 0 01-6.6875 1.528A27.14441 27.14441 0 01557.9727 419.277z"/><path fill="#5e7c24" d="M553.584 427.846a35.68414 35.68414 0 016.53027-4.9618 58.56551 58.56551 0 017.09375-3.65979 57.54473 57.54473 0 017.52051-2.67456 35.28284 35.28284 0 018.08936-1.3601 35.26989 35.26989 0 01-6.52735 4.968 57.52256 57.52256 0 01-7.09668 3.65369 58.55359 58.55359 0 01-7.523 2.66821A35.682 35.682 0 01553.584 427.846zM578.48491 381.406a25.1158 25.1158 0 01.19482-8.01983 37.78993 37.78993 0 012.04346-7.2959 37.16923 37.16923 0 013.44385-6.74756 24.86483 24.86483 0 015.311-6.01672 24.85 24.85 0 01-.18554 8.02325 37.20253 37.20253 0 01-2.05225 7.29248 37.79268 37.79268 0 01-3.45313 6.74408A25.11954 25.11954 0 01578.48491 381.406z"/><path fill="#935b50" d="M557.54585,458.63508h-18.0714l-5.81375-30.84381a1.22592,1.22592,0,0,1,1.19629-1.45891h27.30633a1.22592,1.22592,0,0,1,1.19629,1.45891Z"/><path fill="#d6694b" d="M562.93959,430.01989l.42009-2.2286a1.22593,1.22593,0,0,0-1.19629-1.45892H534.857a1.22592,1.22592,0,0,0-1.19629,1.45892l.42009,2.2286Z"/><polygon fill="#d6694b" points="540.919 449.9 537.102 446.047 540.919 442.193 544.736 446.047 540.919 449.9"/><polygon fill="#d6694b" points="548.554 449.9 544.736 446.047 548.554 442.193 552.371 446.047 548.554 449.9"/><polygon fill="#d6694b" points="556.101 449.9 552.284 446.047 556.101 442.193 559.918 446.047 556.101 449.9"/><path fill="#d5efc8" d="M206.74871,388.60486C169.2309,324.818,148.01325,252.30153,228.903,204.72427s248.23858,53.11656,285.7564,116.90343S445.65667,388.13973,364.767,435.717,244.26653,452.39173,206.74871,388.60486Z"/><path fill="#bbec6c" d="M200.2682,399.2373C175.77211,357.59082,163.91762,322.708,164.028,292.5957c.14062-38.60742,20.4834-70.10547,60.46191-93.61914,27.69434-16.29,66.4541-18.21191,112.08985-5.55957,37.70215,10.45313,78.62988,30.48242,115.24316,56.39844,34.93652,24.72852,62.36524,52.499,75.25293,76.18945l-.87891.47852c-27.59082-50.7207-114.54785-111.21582-189.88476-132.10254-45.36817-12.57813-83.86035-10.69043-111.31445,5.457-39.65332,23.32324-59.83008,54.53223-59.96973,92.76172-.10938,29.92773,11.70019,64.64258,36.10156,106.12988Z"/><rect width="16.971" height="16.971" x="309.19" y="141.057" fill="#dc8758" rx="4.423"/><polygon fill="#dc8758" points="271.587 458.824 264.713 458.824 292.572 333.604 306.606 337.382 271.587 458.824"/><polygon fill="#dc8758" points="364.604 458.824 371.477 458.824 343.619 333.604 329.584 337.382 364.604 458.824"/><rect width="237.673" height="199.728" x="198.614" y="151.076" fill="#ffe3cb" rx="2.949"/><path fill="#904d24" d="M337.95068 186.98245a1.07374 1.07374 0 01-.07761-2.14459l19.69041-1.44773a1.07361 1.07361 0 01.1573 2.14145l-19.6904 1.44773C338.00364 186.98141 337.97689 186.98245 337.95068 186.98245zM357.64213 192.49757h-19.6904a1.07387 1.07387 0 010-2.14774h19.6904a1.07387 1.07387 0 010 2.14774zM357.64213 199.45989h-19.6904a1.07387 1.07387 0 110-2.14773h19.6904a1.07387 1.07387 0 110 2.14773zM357.64213 204.1392h-19.6904a1.07387 1.07387 0 010-2.14774h19.6904a1.07387 1.07387 0 110 2.14774zM244.60531 319.78676a1.07392 1.07392 0 01-1.07387-1.07387v-134.252a1.07387 1.07387 0 012.14774 0v134.252A1.07392 1.07392 0 01244.60531 319.78676zM225.97829 268.10889a1.07392 1.07392 0 01-1.07387-1.07387V203.06533a1.07387 1.07387 0 012.14774 0V267.035A1.07392 1.07392 0 01225.97829 268.10889zM371.6685 313.967h-.01573l-100.45241-1.41522a1.074 1.074 0 01-1.05867-1.08907 1.09011 1.09011 0 011.08908-1.05867l100.45241 1.41523a1.07392 1.07392 0 01-.01468 2.14773z"/><rect width="28.142" height="62.031" x="256.464" y="233.573" fill="#dc8758"/><rect width="28.142" height="96.144" x="294.464" y="199.46" fill="#dc8758"/><rect width="28.142" height="72.278" x="332.464" y="223.326" fill="#dc8758"/><rect width="28.142" height="84.038" x="370.464" y="211.566" fill="#dc8758"/><path fill="#904d24" d="M413.57877,297.16838H221.32153a1.07387,1.07387,0,1,1,0-2.14774H413.57877a1.07387,1.07387,0,1,1,0,2.14774Z"/><rect width="79.184" height="10.809" x="278.464" y="343.373" fill="#dc8758" rx="2.285"/><path fill="#f9977a" d="M442.48277,210.76011s-1.89344-3.42226-10.04634-6.24045-14.86941-4.167-9.72728-.92091l3.95944,2.40878s-6.90281.67326-11.05018.7142a5.13594,5.13594,0,0,0-4.9335,3.60669c-.57082,1.98176.21146,3.43871,4.98567,4.31629a49.27923,49.27923,0,0,0,13.58244.90566,2.92608,2.92608,0,0,1,1.83991.42858l1.50826.934Z"/><path fill="#dd765e" d="M430.86806 205.93481a8.83178 8.83178 0 01-2.0979.24927c-.34839-.00146-.69629-.00232-1.04541-.0365a7.87518 7.87518 0 01-1.05616-.14 4.599 4.599 0 011.04078-.26636 7.305 7.305 0 011.055-.08533A6.91761 6.91761 0 01430.86806 205.93481zM422.35353 208.88843a21.92858 21.92858 0 01-2.58545.21509c-.86426.0354-1.72912.01562-2.59338-.03016a21.97717 21.97717 0 01-2.58228-.29235 11.91229 11.91229 0 01-2.50915-.68433c1.713.24451 3.40966.3512 5.12219.44934C418.91566 208.65552 420.62831 208.72388 422.35353 208.88843zM421.8174 211.3894a21.09933 21.09933 0 01-2.81909.36353 23.93895 23.93895 0 01-2.84668.03394 16.02475 16.02475 0 01-2.83448-.36609 6.7047 6.7047 0 01-2.6322-1.09241 9.71192 9.71192 0 002.70557.6925c.92309.11731 1.85205.204 2.787.23841C418.0464 211.35779 419.92226 211.34875 421.8174 211.3894zM420.76063 213.59534a15.36543 15.36543 0 01-2.35327.34228 20.34986 20.34986 0 01-2.379.04578 14.12768 14.12768 0 01-4.6621-.90833c.79065.09021 1.56518.1864 2.34509.24683.78064.04785 1.55774.1084 2.339.13379z"/><path fill="#ffba55" d="M491.43009,196.053s-3.25641,1.45569-5.78018,2.74962c-3.49835,1.7936-8.931,8.09638-15.28858,23.8384l-4.22487,10.46113s-12.682-14.804-23.65369-24.193l-10.82885,8.7869,25.0642,28.87078a17.71074,17.71074,0,0,0,6.27949,5.53065c5.72266,2.9244,11.5662,1.9602,14.77415-3.98721,5.018-9.30321,10.98378-23.46774,11.5545-27.41456Z"/><path fill="#e6952a" d="M466.17677,233.28943c-.176,1.65332-.45593,3.21033-.52026,4.769a11.94634,11.94634,0,0,0,.05994,2.3053,7.51729,7.51729,0,0,0,.67639,2.25452,4.06066,4.06066,0,0,1-1.4364-2.07727,6.98823,6.98823,0,0,1-.2981-2.5337,9.75992,9.75992,0,0,1,.45728-2.4663A8.33021,8.33021,0,0,1,466.17677,233.28943Z"/><polygon fill="#f9977a" points="522.086 434.818 523.275 446.681 502.674 456.747 534.309 456.747 534.309 434.818 522.086 434.818"/><polygon fill="#f9977a" points="488.134 434.818 489.323 446.681 468.721 456.747 500.357 456.747 500.357 434.818 488.134 434.818"/><path fill="#065ea5" d="M476.07305,270.56675s-2.1392,34.63213-2.1392,42.77451v48.04558q0,2.96789.29146,5.925l7.12513,72.24928a2.841,2.841,0,0,0,2.82729,2.56218h16.41939a2.841,2.841,0,0,0,2.83351-3.04709l-4.4365-60.99824a60.372,60.372,0,0,1,1.12-16.74057l17.918-85.65678Z"/><path fill="#065ea5" d="M520.42937,440.90575h13.93491a2.841,2.841,0,0,0,2.841-2.841V388.5133a129.13354,129.13354,0,0,0-3.2466-28.77408v0a19.09273,19.09273,0,0,1-.458-5.1632c.6073-12.75947,2.87624-68.71691-3.48529-78.89535l-40.69248-3.00446,28.306,165.86648A2.841,2.841,0,0,0,520.42937,440.90575Z"/><path fill="#065082" d="M514.8492,282.39306s0,17.12393,18.89444,12.64326l-1.04481-15.41448Z"/><path fill="#a1acaf" d="M465.5456,457.82568v-.07238a2.99582,2.99582,0,0,1,1.64753-2.67526l21.38376-10.77694a.9986.9986,0,0,1,1.24778.2919l4.1798,5.563a.99861.99861,0,0,0,1.31214.25644l4.90595-2.94357a.9986.9986,0,0,1,1.51238.85629v9.50051a.9986.9986,0,0,1-.9986.9986H466.5442A.9986.9986,0,0,1,465.5456,457.82568Z"/><path fill="#a1acaf" d="M499.49807,457.82568v-.07238a2.99582,2.99582,0,0,1,1.64753-2.67526l21.38376-10.77694a.99862.99862,0,0,1,1.24779.2919l4.1798,5.563a.99859.99859,0,0,0,1.31213.25644l4.90595-2.94357a.9986.9986,0,0,1,1.51238.85629v9.50051a.9986.9986,0,0,1-.9986.9986H500.49667A.9986.9986,0,0,1,499.49807,457.82568Z"/><path fill="#065082" d="M507.33559,282.68164c-23.22266,0-31.8125-7.00879-31.9209-7.10059l.26269-.30859c.1377.11524,14.21582,11.56152,55.3086,4.95313l.06445.40039A149.78162,149.78162,0,0,1,507.33559,282.68164Z"/><rect width=".406" height="69.782" x="496.459" y="280.624" fill="#065082" transform="rotate(-9.638 496.662 315.515)"/><path fill="#f9977a" d="M504.36818,155.66381a18.43648,18.43648,0,0,0-8.61147.73814c-1.299.46058-6.05,2.145-8.36569,6.64321-.87951,1.7083-1.07824,3.76335-1.47621,7.87343a72.24779,72.24779,0,0,0-.246,7.62739c.00075,1.75791.037,4.27466.246,7.38135.26556,3.94748.41,5.93566.98414,6.64321,2.31393,2.85159,7.27579.21563,7.3813,3.93667.06514,2.29765-1.39476,3.752.523,5.81285,2.37826,2.55558,11.41236,1.58844,14.732-.15377.45252-.2375,7.09146-3.80968,6.64319-7.87344-.23953-2.17093-2.27138-2.39548-3.69077-5.659a13.03133,13.03133,0,0,1-.73811-7.1353c.64-4.75039,3.03376-5.32972,4.921-11.072a8.932,8.932,0,0,0-1.47624-8.61157A18.24469,18.24469,0,0,0,504.36818,155.66381Z"/><path fill="#ffba55" d="M495.81815,196.81872s2.28872,11.58448,18.52767-5.39262l15.66847,9.69432a22.51828,22.51828,0,0,1,8.21192,9.24706,113.45148,113.45148,0,0,1,10.67611,41.74591s2.2144,14.58169-19.43754,43.33641c0,0-11.31806,2.18188-14.02456-9.87432l6.95194-9.59575s-36.72336,3.44463-46.31911-5.413c0,0-13.05444-50.19315,16.239-75.28972Z"/><path fill="#e6952a" d="M523.06764,223.32617q.64637,4.10046,1.20007,8.21143c.35584,2.74206.74561,5.48034,1.07337,8.22558l.97851,8.23621c.34058,2.74377.59205,5.49756.89246,8.24585l.00488.045-.00317.03772a74.12178,74.12178,0,0,1-1.55054,10.0542,39.85565,39.85565,0,0,1-3.27112,9.59754,49.846,49.846,0,0,0,2.64759-9.72364c.2998-1.65393.538-3.31884.73974-4.98693.21936-1.66346.40479-3.34131.52344-5.00477l.00171.0824c-.3147-2.7467-.67847-5.48791-.953-8.239l-.86682-8.24878c-.28736-2.74976-.51258-5.50647-.772-8.25928Q523.34749,227.46759,523.06764,223.32617Z"/><path fill="#e6952a" d="M519.19765 226.03259a16.153 16.153 0 012.87524 3.13391 15.96649 15.96649 0 012.0647 3.71827 15.97351 15.97351 0 01-2.87537-3.13379A16.1523 16.1523 0 01519.19765 226.03259zM526.75832 256.29614c1.12133-.00915 2.11706.10706 3.11523.14734.49646.02771.98425.02271 1.48254.01734.496-.02918.98694-.08423 1.55335-.16468a3.04383 3.04383 0 01-1.40674.93115 5.0296 5.0296 0 01-1.67554.21448 5.86874 5.86874 0 01-1.62707-.32812A4.27091 4.27091 0 01526.75832 256.29614zM499.3008 200.4812c-1.00306 3.02258-1.96521 6.05518-2.81434 9.12122q-1.34051 4.57763-2.47155 9.21045c-1.51929 6.171-2.84693 12.38757-3.84143 18.6593a171.38057 171.38057 0 00-1.996 18.92688c-.05346 3.171-.2019 6.34839.007 9.51916-.00952 3.18579.47437 6.32947.73474 9.50843a97.86882 97.86882 0 01-1.51049-19.05127 154.61118 154.61118 0 011.77856-19.06153c1.08228-6.29138 2.402-12.54138 4.08667-18.69409A163.35761 163.35761 0 01499.3008 200.4812z"/><path fill="#e6952a" d="M492.312,195.277c-.37525,1.6803-.71534,3.3667-.93555,5.06506a15.67708,15.67708,0,0,0-.05872,5.01978c.17884.8042.646,1.36657,1.34986,1.16723a5.748,5.748,0,0,0,2.06054-1.13574,30.41159,30.41159,0,0,0,3.61219-3.55847l.73486-.82178.08142,1.11878a8.393,8.393,0,0,0,.88245,3.322,3.182,3.182,0,0,0,2.45837,1.83154,6.24773,6.24773,0,0,0,3.27149-.80115,17.60563,17.60563,0,0,0,3.01416-1.94812,81.61415,81.61415,0,0,0,10.41455-10.29687c-1.4618,1.97449-2.96558,3.92468-4.60181,5.76831a47.957,47.957,0,0,1-5.28821,5.19873,18.43895,18.43895,0,0,1-3.13135,2.08569,7.11566,7.11566,0,0,1-3.7771.94654,4.07711,4.07711,0,0,1-3.23278-2.32056,9.30392,9.30392,0,0,1-.94458-3.75733l.81616.297a31.19193,31.19193,0,0,1-3.78638,3.61878,5.8074,5.8074,0,0,1-2.46728,1.22607,1.626,1.626,0,0,1-1.49793-.4635,2.58014,2.58014,0,0,1-.62073-1.32568,9.68493,9.68493,0,0,1-.07531-2.66126,21.41192,21.41192,0,0,1,.38305-2.577A42.31334,42.31334,0,0,1,492.312,195.277Z"/><ellipse cx="486.18" cy="174.948" fill="#0a0709" rx=".965" ry="1.199"/><ellipse cx="494.382" cy="174.948" fill="#0a0709" rx=".965" ry="1.199"/><path fill="#cdd3d1" d="M490.27309 172.7998a.6019.6019 0 01-.33008-.09765 5.14476 5.14476 0 00-5.82422-.02344.6088.6088 0 01-.73242-.97266 6.46283 6.46283 0 017.21875-.02539.60846.60846 0 01-.332 1.11914zM498.47426 172.7998a.60193.60193 0 01-.33008-.09765 5.20239 5.20239 0 00-5.82227-.02539.609.609 0 01-.73437-.97168 6.47461 6.47461 0 017.21875-.02442.60845.60845 0 01-.332 1.11914z"/><circle cx="495.347" cy="220.374" r="1.047" fill="#065ea5"/><circle cx="498.486" cy="208.223" r="1.047" fill="#065ea5"/><circle cx="492.738" cy="234.62" r="1.047" fill="#065ea5"/><circle cx="490.595" cy="249.653" r="1.047" fill="#065ea5"/><circle cx="489.938" cy="266.115" r="1.047" fill="#065ea5"/><rect width=".406" height="6.429" x="482.487" y="273.997" fill="#065082"/><polygon fill="#065082" points="507.923 284.004 507.05 276.641 507.453 276.594 508.325 283.957 507.923 284.004"/><circle cx="492.592" cy="278.818" r="1.607" fill="#065082"/><polygon fill="#065082" points="493.806 298.142 493.562 297.817 496.617 295.516 494.344 281.744 494.745 281.678 497.056 295.691 493.806 298.142"/><path fill="#065082" d="M522.50063 336.70215l-.2168-.3418c6.8916-4.37695 8.51758-17.44922 8.5332-17.58008l.40235.04688C531.20375 318.96094 529.55629 332.22266 522.50063 336.70215zM522.50648 342.15332l-.22851-.334c5.57226-3.81543 8.52148-11.3252 8.55078-11.40039l.37891.14648C531.17836 330.6416 528.1852 338.2666 522.50648 342.15332zM485.73305 395l-.2168-.3418c6.89258-4.37793 8.51855-17.45019 8.53418-17.58105l.40234.04687C494.43715 377.25781 492.78969 390.51953 485.73305 395zM485.73891 400.4502l-.22852-.334c5.5752-3.81738 8.52246-11.32519 8.55176-11.40039l.3789.14648C494.41176 388.93848 491.41762 396.56348 485.73891 400.4502z"/><path fill="#dd765e" d="M488.66627,173.4538a4.77577,4.77577,0,0,1-.24231,3.03058,11.0431,11.0431,0,0,1-1.483,2.697c-.31555.41491-.776.72534-.7445,1.133a1.73676,1.73676,0,0,0,.64782,1.16016,3.74749,3.74749,0,0,0,2.80457.62195,3.491,3.491,0,0,1-3.00244-.3805,1.9345,1.9345,0,0,1-.81922-1.39758,1.18139,1.18139,0,0,1,.31214-.81244l.48694-.5802a12.11889,12.11889,0,0,0,1.51342-2.56677A5.44335,5.44335,0,0,0,488.66627,173.4538Z"/><path fill="#cdd3d1" d="M517.65456,172.14882c1.06623-2.79874,2.07089-5.43347,1.23017-8.11946-.57391-1.82486-2.09117-3.947-3.69052-3.93674-1.01493,0-1.19964.86118-3.19845,2.21437a16.41694,16.41694,0,0,1-4.9212,2.21444c-2.77822.73811-3.79289.164-4.9207,1.23024-.23577.22551-.8202.84066-1.23042,2.95254-.451,2.30667-.1742,3.70091,0,6.39716.27682,4.18278.3897,6.29466-.73786,7.62739a3.99674,3.99674,0,0,1-3.44473,1.47621c-.78942-.14348-1.02519-.59456-2.4606-1.72225a12.06456,12.06456,0,0,0-3.44449-2.21443c-1.056-.35879-1.61987,1.73256-2.70663,1.96834-.861.18459-2.3272-1.59929-2.70639-.98414-.3897.62535-.1334,1.03545,0,3.19858.18447,3.07556-.26655,3.28054,0,4.92088a8.68812,8.68812,0,0,0,2.4606,4.92088c1.712,1.60955,3.73157,1.86585,6.39691,2.21438,2.69637.34859,4.347.5639,6.15112-.246,2.96293-1.33273,4.16232-4.42881,4.921-6.39715a21.13951,21.13951,0,0,0,1.23017-8.3655,44.72534,44.72534,0,0,1,0-6.64319c.1334-1.58909.32813-2.71677,1.23042-3.44467a3.03686,3.03686,0,0,1,2.95242-.49207c1.83513.79967,2.26562,4.00851,1.96828,6.15112a15.55851,15.55851,0,0,1-1.13784,3.89059,10.4141,10.4141,0,0,0-.01212,3.764c.09846,1.06968,2.40092.01376,3.05693-1.13445,1.01492-1.77355.71757-3.64968,1.0457-6.76623C515.87074,175.09111,516.47569,175.24491,517.65456,172.14882ZM486.899,186.15472h0a1.09683,1.09683,0,0,1,.72674-1.03294c1.24067-.44913,3.79209-.989,5.43384,1.30341a.85031.85031,0,0,1-1.04092,1.263,5.95939,5.95939,0,0,0-3.75532-.47863A1.09514,1.09514,0,0,1,486.899,186.15472Z"/><path fill="#dd765e" d="M508.12379,173.4538a2.53216,2.53216,0,0,1,1.97986.81244,4.46505,4.46505,0,0,1,.65613.87365,3.90185,3.90185,0,0,1,.38794,1.00714,14.49428,14.49428,0,0,0-1.32861-1.5921,4.45586,4.45586,0,0,0-.77137-.64465A3.66405,3.66405,0,0,0,508.12379,173.4538Z"/><path fill="#dd765e" d="M508.90749 178.45563a3.61114 3.61114 0 01.72827-4.33917c-.15357.3609-.32471.69244-.43555 1.04748a4.98574 4.98574 0 00-.26819 1.06415A7.39229 7.39229 0 00508.90749 178.45563zM492.83546 175.90894a5.16541 5.16541 0 002.18714 1.24578 10.74847 10.74847 0 002.53711.36139c-.212.06354-.42957.105-.64832.15351-.22046.01733-.443.0484-.667.05059a5.14689 5.14689 0 01-1.33765-.177A3.337 3.337 0 01492.83546 175.90894zM485.67213 177.35785c.37122-.2854.74366-.46784 1.085-.71588.3628-.21674.67981-.47138 1.062-.733a1.983 1.983 0 01-.84 1.07214A2.29549 2.29549 0 01485.67213 177.35785z"/><path fill="#e6952a" d="M473.19459,252.75732a71.977,71.977,0,0,1-.31713-10.758,54.92723,54.92723,0,0,1,1.34277-10.68323c-.07935,3.59753-.20789,7.152-.34412,10.72351C473.72,245.60828,473.56825,249.17639,473.19459,252.75732Z"/><path fill="#935b50" d="M115.582,220.88942V458.82428h53.7922V220.88942a2.58119,2.58119,0,0,0-2.58119-2.58119H118.16318A2.58119,2.58119,0,0,0,115.582,220.88942Z"/><rect width="47.855" height="35.543" x="118.55" y="261.595" fill="#e19974" rx="2.581"/><rect width="47.855" height="35.543" x="118.55" y="222.18" fill="#e19974" rx="2.581"/><path fill="#d6694b" d="M163.366 253.21216a1.5946 1.5946 0 11-2.25329 2.25317 9.48945 9.48945 0 00.561-.89795 2.02625 2.02625 0 01.32544-.46887C162.24123 253.85242 162.55507 253.77991 163.366 253.21216zM161.11269 224.43774a1.59464 1.59464 0 112.25329 2.2533 9.5078 9.5078 0 00-.898-.561 2.02394 2.02394 0 01-.46887-.32543C161.75307 225.5625 161.68056 225.24866 161.11269 224.43774zM121.59022 226.691a1.59465 1.59465 0 112.2533-2.2533 9.54362 9.54362 0 00-.56116.898 2.02038 2.02038 0 01-.32531.46888C122.715 226.05066 122.40114 226.12317 121.59022 226.691zM123.84352 255.46533a1.59461 1.59461 0 11-2.2533-2.25317 9.55913 9.55913 0 00.89795.561 2.028 2.028 0 01.46888.32532C123.20314 254.34058 123.27565 254.65442 123.84352 255.46533zM163.366 292.627a1.59464 1.59464 0 11-2.25329 2.2533 9.50634 9.50634 0 00.561-.89795 2.02363 2.02363 0 01.32544-.46887C162.24123 293.26733 162.55507 293.19482 163.366 292.627zM161.11269 263.85266a1.5946 1.5946 0 112.25329 2.25317 9.56081 9.56081 0 00-.898-.561 2.02732 2.02732 0 01-.46887-.32532C161.75307 264.97742 161.68056 264.66357 161.11269 263.85266zM121.59022 266.10583a1.59461 1.59461 0 112.2533-2.25317 9.52528 9.52528 0 00-.56116.89795 2.02291 2.02291 0 01-.32531.46887C122.715 265.46558 122.40114 265.53809 121.59022 266.10583zM123.84352 294.88025a1.59465 1.59465 0 11-2.2533-2.2533 9.5104 9.5104 0 00.89795.561 2.02372 2.02372 0 01.46888.32544C123.20314 293.75549 123.27565 294.06934 123.84352 294.88025z"/><rect width="47.855" height="35.543" x="118.55" y="340.425" fill="#e19974" rx="2.581"/><rect width="47.855" height="35.543" x="118.55" y="379.84" fill="#e19974" rx="2.581"/><rect width="14.713" height="5.421" x="135.122" y="235.112" fill="#d6694b" rx="1"/><rect width="14.713" height="5.421" x="135.122" y="353.356" fill="#d6694b" rx="1"/><rect width="14.713" height="5.421" x="135.122" y="392.771" fill="#d6694b" rx="1"/><rect width="14.713" height="5.421" x="135.122" y="274.527" fill="#d6694b" rx="1"/><path fill="#d6694b" d="M163.366 371.45667a1.59464 1.59464 0 11-2.25329 2.25329 9.48945 9.48945 0 00.561-.898 2.02363 2.02363 0 01.32544-.46887C162.24123 372.09705 162.55507 372.02454 163.366 371.45667zM161.11269 342.68237a1.59465 1.59465 0 112.25329 2.2533 9.541 9.541 0 00-.898-.56116 2.02 2.02 0 01-.46887-.32532C161.75307 343.80713 161.68056 343.49329 161.11269 342.68237zM121.59022 344.93567a1.59465 1.59465 0 112.2533-2.2533 9.54231 9.54231 0 00-.56116.89795 2.02029 2.02029 0 01-.32531.46887C122.715 344.29529 122.40114 344.3678 121.59022 344.93567zM123.84352 373.71a1.59465 1.59465 0 11-2.2533-2.25329 9.54084 9.54084 0 00.89795.56115 2.02007 2.02007 0 01.46888.32532C123.20314 372.58521 123.27565 372.89905 123.84352 373.71zM163.366 410.87158a1.59464 1.59464 0 11-2.25329 2.2533 9.50634 9.50634 0 00.561-.898 2.021 2.021 0 01.32544-.46887C162.24123 411.512 162.55507 411.43945 163.366 410.87158zM161.11269 382.09717a1.59464 1.59464 0 112.25329 2.25329 9.55865 9.55865 0 00-.898-.561 2.02732 2.02732 0 01-.46887-.32532C161.75307 383.22205 161.68056 382.9082 161.11269 382.09717zM121.59022 384.35046a1.59465 1.59465 0 112.2533-2.25329 9.53893 9.53893 0 00-.56116.89807 2.02291 2.02291 0 01-.32531.46887C122.715 383.71021 122.40114 383.78271 121.59022 384.35046zM123.84352 413.12488a1.59465 1.59465 0 11-2.2533-2.2533 9.5104 9.5104 0 00.89795.561 2.02372 2.02372 0 01.46888.32544C123.20314 412.00012 123.27565 412.31384 123.84352 413.12488z"/><path fill="#7ca1b1" d="M131.18848,402.10495s26.2573.53284,30.24632-3.90395c0,0-8.59848,30.80679-2.10722,45.92154l-29.20419-3.084S133.53863,417.17938,131.18848,402.10495Z"/><path fill="#f65b2b" d="M124.75911,405.879s26.25731.53285,30.24632-3.90394c0,0-8.59848,30.80679-2.10722,45.92154l-29.20419-3.084S127.10927,420.95346,124.75911,405.879Z"/><path fill="#fff" d="M128.04351,408.77917s26.2573.53285,30.24631-3.90394c0,0-8.59848,30.80679-2.10722,45.92154l-29.20418-3.084S130.39366,423.8536,128.04351,408.77917Z"/><path fill="#ffba55" d="M131.25819,285.70633s26.2573.53284,30.24632-3.90395c0,0-8.59848,30.8068-2.10722,45.92155l-29.20419-3.084S133.60834,300.78076,131.25819,285.70633Z"/><path fill="#f65b2b" d="M124.82882,289.48042s26.25731.53284,30.24632-3.904c0,0-8.59848,30.80679-2.10722,45.92154l-29.20419-3.084S127.179,304.55484,124.82882,289.48042Z"/><path fill="#fff" d="M128.11322,292.38056s26.2573.53284,30.24631-3.904c0,0-8.59848,30.80679-2.10722,45.92154l-29.20418-3.084S130.46337,307.455,128.11322,292.38056Z"/><rect width="47.855" height="35.543" x="118.55" y="419.254" fill="#e19974" rx="2.581"/><rect width="14.713" height="5.421" x="135.122" y="432.186" fill="#d6694b" rx="1"/><path fill="#d6694b" d="M163.366 450.2865a1.59464 1.59464 0 11-2.25329 2.25329 9.48741 9.48741 0 00.561-.89807 2.02625 2.02625 0 01.32544-.46887C162.24123 450.92688 162.55507 450.85425 163.366 450.2865zM161.11269 421.51208a1.59464 1.59464 0 112.25329 2.2533 9.5565 9.5565 0 00-.898-.561 2.02424 2.02424 0 01-.46887-.32544C161.75307 422.63684 161.68056 422.32312 161.11269 421.51208zM121.59022 423.76538a1.59465 1.59465 0 112.2533-2.2533 9.54362 9.54362 0 00-.56116.89795 2.01755 2.01755 0 01-.32531.46888C122.715 423.125 122.40114 423.19751 121.59022 423.76538zM123.84352 452.53979a1.59465 1.59465 0 11-2.2533-2.25329 9.55913 9.55913 0 00.89795.561 2.028 2.028 0 01.46888.32532C123.20314 451.415 123.27565 451.72876 123.84352 452.53979z"/><rect width="47.855" height="35.543" x="118.55" y="301.01" fill="#e19974" rx="2.581"/><rect width="14.713" height="5.421" x="135.122" y="313.942" fill="#d6694b" rx="1"/><path fill="#d6694b" d="M163.366 332.04187a1.59464 1.59464 0 11-2.25329 2.2533 9.48854 9.48854 0 00.561-.89808 2.02625 2.02625 0 01.32544-.46887C162.24123 332.68225 162.55507 332.60962 163.366 332.04187zM161.11269 303.26746a1.59464 1.59464 0 112.25329 2.25329 9.5565 9.5565 0 00-.898-.561 2.02793 2.02793 0 01-.46887-.32532C161.75307 304.39221 161.68056 304.07849 161.11269 303.26746zM121.59022 305.52075a1.59465 1.59465 0 112.2533-2.25329 9.541 9.541 0 00-.56116.89795 2.02134 2.02134 0 01-.32531.469C122.715 304.88037 122.40114 304.95288 121.59022 305.52075zM123.84352 334.29517a1.59465 1.59465 0 11-2.2533-2.2533 9.56192 9.56192 0 00.89795.561 2.02771 2.02771 0 01.46888.32531C123.20314 333.17041 123.27565 333.48413 123.84352 334.29517z"/><rect width="500" height="2" x="95.582" y="457.824" fill="#935b50"/></svg>